<svg width="64" height="16" viewBox="0 0 64 16" fill="none" xmlns="http://www.w3.org/2000/svg">
<path d="M60.6679 1C62.1483 1 63.3358 2.18754 63.3358 3.65164C63.3358 5.132 62.1483 6.31954 60.6679 6.31954C59.1875 6.31954 58 5.132 58 3.65164C58 2.18754 59.1875 1 60.6679 1ZM60.6679 5.83151C61.8717 5.83151 62.8478 4.85544 62.8478 3.65164C62.8478 2.46409 61.8717 1.48803 60.6679 1.48803C59.4804 1.48803 58.5043 2.46409 58.5043 3.65164C58.5043 4.85544 59.4804 5.83151 60.6679 5.83151ZM61.5626 4.05833L62.2133 4.96932H60.9933L60.6191 4.221H60.4402V4.96932H59.4316V2.13874H60.7655C61.5789 2.13874 62.1157 2.5617 62.1157 3.17987C62.1157 3.60283 61.9042 3.89565 61.5626 4.05833ZM60.7492 2.90332H60.4402V3.50523H60.7492C60.9607 3.50523 61.1071 3.39135 61.1071 3.19614C61.1071 3.03346 60.9607 2.90332 60.7492 2.90332Z" fill="#292929"/>
<path d="M22 6.26269H25.7714V8.17655C26.4969 6.72552 27.6478 6 29.2239 6C30.4247 6 31.3629 6.43156 32.0384 7.29467C32.7264 8.14528 33.0704 9.32737 33.0704 10.8409V15.5318H29.1301V10.4469C29.1301 9.90903 29.0112 9.49624 28.7736 9.20853C28.5484 8.92083 28.2294 8.77697 27.8166 8.77697C27.5164 8.77697 27.2225 8.87705 26.9348 9.07719C26.6471 9.26482 26.4094 9.54002 26.2218 9.90277C26.0466 10.2655 25.9591 10.6783 25.9591 11.1412V15.5318H22V6.26269Z" fill="#292929"/>
<path d="M47.9524 15.5668C46.9017 15.5668 46.0823 15.229 45.4944 14.5535C44.9065 13.8781 44.6125 12.9586 44.6125 11.7953V6.01621H48.5904V11.6264C48.5904 11.9142 48.6654 12.1393 48.8155 12.3019C48.9782 12.452 49.1846 12.5271 49.4347 12.5271C49.6849 12.5271 49.9413 12.452 50.204 12.3019L50.4104 14.91C50.1352 15.1227 49.7725 15.2853 49.3221 15.3979C48.8843 15.5105 48.4278 15.5668 47.9524 15.5668ZM46.6191 2.94102C46.0312 2.94102 47.0319 3.50404 46.6191 3.14128C46.2188 2.76602 46.3742 3.23296 46.3742 2.69507C46.3742 2.15719 45.5747 2.86275 46 2.49999C46.4253 2.13723 46.1276 2.69507 46.678 2.69507C47.2534 2.69507 46.5872 2.62475 47 3.00002C47.4253 3.37528 46.4293 2.12236 46.4293 2.63522C46.4293 3.18561 47.1033 2.63726 46.678 3.00002C46.2527 3.36277 47.182 2.94102 46.6191 2.94102Z" fill="#292929"/>
<path d="M3.00317 15.5C1.50317 15.5 1.0911 15.663 0.503183 15C-0.0722265 14.3245 0.00326102 13.5075 0.00326102 12.3442L0.00317383 1L4.00317 0L3.96233 12.0627C3.96233 12.413 4.04363 12.6694 4.20625 12.832C4.38138 12.9821 4.68159 13.0572 5.10689 13.0572C5.41961 13.0572 5.70296 13.2073 6.00317 13.0572V15.5C5.00317 15.5 4.00317 15.5 3.00317 15.5Z" fill="#292929"/>
<path d="M5.50317 15.5C4.45243 15.5 4.02967 15.5604 3.20409 15.1476C2.39101 14.7348 1.75306 14.1656 1.29023 13.4401C0.839906 12.7021 0.614746 11.8577 0.614746 10.907C0.614746 9.95637 0.846161 9.11828 1.30899 8.39276C1.77182 7.65474 2.40977 7.08558 3.22285 6.6853C4.04844 6.28501 4.98661 6.08487 6.03735 6.08487C7.10061 6.08487 8.03878 6.29127 8.85185 6.70406C9.67744 7.10434 10.3154 7.66724 10.7657 8.39276C11.216 9.11828 11.4412 9.95637 11.4412 10.907C11.4412 11.8702 11.2098 12.7208 10.747 13.4589C10.2966 14.1844 9.65868 14.7535 8.83309 15.1663C8.02001 15.5666 6.56643 15.5 5.50317 15.5ZM6.05612 12.9523C6.56898 12.9523 6.98803 12.7646 7.31326 12.3894C7.651 12.0016 7.81987 11.5075 7.81987 10.907C7.81987 10.3066 7.651 9.81877 7.31326 9.44351C6.98803 9.05573 6.56898 8.86184 6.05612 8.86184C5.54325 8.86184 5.11795 9.05573 4.78021 9.44351C4.45498 9.81877 4.29236 10.3066 4.29236 10.907C4.29236 11.5075 4.45498 12.0016 4.78021 12.3894C5.11795 12.7646 5.54325 12.9523 6.05612 12.9523Z" fill="#292929"/>
<path d="M48.419 3.4879C47.7465 4.21571 46.5956 4.63952 45.2738 4.73913H45.2724C44.84 3.87553 44.9077 2.97951 45.581 2.25123C46.2535 1.52295 47.405 1.09914 48.7276 1C49.16 1.86407 49.0923 2.75962 48.419 3.4879V3.4879Z" fill="#87B272"/>
<path opacity="0.1" d="M48.4191 3.48792C47.7466 4.21573 46.5957 4.63954 45.2739 4.73915H45.2732L48.7277 1.00049C49.1601 1.86456 49.0924 2.76011 48.4191 3.48839V3.48792Z" fill="#526B45"/>
<path d="M16.4942 6C20.1215 6 21.5529 7.74045 21.5529 10.3267V15.4017H17.6817V14.3119C17.1611 15.1414 16.2177 15.6294 15.0466 15.6294C13.1597 15.6294 11.8259 14.4908 11.8259 12.7178C11.8259 10.9286 13.1597 9.93635 15.6809 9.93635C16.234 9.93635 17.0635 9.96888 17.6654 10.0014V9.98515C17.6654 9.31824 17.1611 8.92786 16.0225 8.92786C15.0466 8.92786 14.152 9.05799 13.3061 9.31824L13.0296 6.43918C14.0869 6.16266 15.193 6 16.4942 6ZM16.3966 12.9455C17.0635 12.9455 17.5841 12.5552 17.6654 11.7256V11.4328C17.3889 11.4165 17.0961 11.4165 16.6894 11.4165C15.9575 11.4165 15.5508 11.7256 15.5508 12.2298C15.5508 12.6528 15.8924 12.9455 16.3966 12.9455Z" fill="#292929"/>
<path d="M54.7662 15.5163C52.3751 15.5163 50.9925 14.2963 50.9925 11.9378V9.02616H50.0002V7.6273L51.6106 5.91937L53.3998 4H54.8637V6.13083H57.4175V9.02616H54.8637V11.5148C54.8637 12.0028 55.124 12.2793 55.5794 12.2793C56.0024 12.2793 56.4578 12.198 57.0108 11.9866L57.7103 14.8168C56.7669 15.3048 55.6608 15.5163 54.7662 15.5163Z" fill="#292929"/>
<path d="M38.3428 6.5L40.4335 4H44.5L38.8428 9.5L44.5 15.3861H40.4335L38.8428 13.5L37.034 11.3847V15.3861L34 15.3338V4H37.034V8.18034L38.3428 6.5Z" fill="#292929"/>
</svg>
